<svg id="Layer_1" data-name="Layer 1" xmlns="http://www.w3.org/2000/svg" xmlns:xlink="http://www.w3.org/1999/xlink" viewBox="0 0 63.22 69.17"><defs><style>.cls-1{isolation:isolate;font-size:22.43px;fill:#e5251e;font-family:Impact;}.cls-2{fill:url(#linear-gradient);}.cls-3{fill:url(#linear-gradient-2);}.cls-4{fill:url(#linear-gradient-3);}.cls-5{fill:url(#linear-gradient-4);}.cls-6{fill:url(#linear-gradient-5);}.cls-7{fill:url(#linear-gradient-6);}.cls-8{fill:url(#linear-gradient-7);}.cls-9{fill:url(#linear-gradient-8);}.cls-10{fill:url(#linear-gradient-9);}.cls-11{fill:url(#linear-gradient-10);}.cls-12{fill:url(#linear-gradient-11);}.cls-13{fill:url(#linear-gradient-12);}.cls-14{fill:url(#linear-gradient-13);}.cls-15{fill:url(#linear-gradient-14);}.cls-16{fill:url(#linear-gradient-15);}.cls-17{fill:url(#linear-gradient-16);}.cls-18{fill:url(#linear-gradient-17);}.cls-19{fill:url(#linear-gradient-18);}.cls-20{fill:url(#linear-gradient-19);}.cls-21{fill:url(#linear-gradient-20);}.cls-22{fill:url(#linear-gradient-21);}.cls-23{fill:url(#linear-gradient-22);}.cls-24{fill:url(#linear-gradient-23);}.cls-25{fill:url(#linear-gradient-24);}.cls-26{fill:url(#linear-gradient-25);}.cls-27{fill:url(#linear-gradient-26);}.cls-28{fill:url(#linear-gradient-27);}.cls-29{fill:url(#linear-gradient-28);}.cls-30{fill:url(#linear-gradient-29);}.cls-31{fill:url(#linear-gradient-30);}.cls-32{fill:url(#linear-gradient-31);}.cls-33{fill:url(#linear-gradient-32);}.cls-34{fill:url(#linear-gradient-33);}.cls-35{fill:url(#linear-gradient-34);}.cls-36{fill:url(#linear-gradient-35);}.cls-37{fill:url(#linear-gradient-36);}.cls-38{fill:url(#linear-gradient-37);}.cls-39{fill:url(#linear-gradient-38);}.cls-40{fill:url(#linear-gradient-39);}.cls-41{fill:url(#linear-gradient-40);}.cls-42{fill:url(#linear-gradient-41);}.cls-43{fill:url(#linear-gradient-42);}.cls-44{fill:url(#linear-gradient-43);}.cls-45{fill:url(#linear-gradient-44);}.cls-46{fill:url(#linear-gradient-45);}.cls-47{fill:url(#linear-gradient-46);}.cls-48{fill:url(#linear-gradient-47);}.cls-49{fill:url(#linear-gradient-48);}.cls-50{fill:url(#linear-gradient-49);}.cls-51{fill:url(#linear-gradient-50);}.cls-52{fill:url(#linear-gradient-51);}.cls-53{fill:url(#linear-gradient-52);}.cls-54{fill:url(#linear-gradient-53);}.cls-55{fill:url(#linear-gradient-54);}.cls-56{fill:url(#linear-gradient-55);}.cls-57{fill:url(#linear-gradient-56);}.cls-58{fill:url(#linear-gradient-57);}.cls-59{fill:url(#linear-gradient-58);}.cls-60{fill:url(#linear-gradient-59);}.cls-61{fill:url(#linear-gradient-60);}.cls-62{fill:url(#linear-gradient-61);}.cls-63{fill:url(#linear-gradient-62);}.cls-64{fill:url(#linear-gradient-63);}.cls-65{fill:url(#linear-gradient-64);}.cls-66{fill:url(#linear-gradient-65);}.cls-67{fill:url(#linear-gradient-66);}.cls-68{fill:url(#linear-gradient-67);}.cls-69{fill:url(#linear-gradient-68);}.cls-70{fill:url(#linear-gradient-69);}.cls-71{fill:url(#linear-gradient-70);}.cls-72{fill:url(#linear-gradient-71);}.cls-73{fill:url(#linear-gradient-72);}.cls-74{fill:url(#linear-gradient-73);}.cls-75{fill:url(#linear-gradient-74);}.cls-76{fill:url(#linear-gradient-75);}.cls-77{fill:url(#linear-gradient-76);}.cls-78{fill:url(#linear-gradient-77);}.cls-79{fill:url(#linear-gradient-78);}.cls-80{fill:url(#linear-gradient-79);}.cls-81{fill:url(#linear-gradient-80);}.cls-82{fill:url(#linear-gradient-81);}.cls-83{fill:url(#linear-gradient-82);}.cls-84{fill:url(#linear-gradient-83);}.cls-85{fill:url(#linear-gradient-84);}.cls-86{fill:url(#linear-gradient-85);}.cls-87{fill:url(#linear-gradient-86);}.cls-88{fill:url(#linear-gradient-87);}.cls-89{fill:url(#linear-gradient-88);}.cls-90{fill:url(#linear-gradient-89);}.cls-91{fill:url(#linear-gradient-90);}.cls-92{fill:none;stroke:#010101;stroke-width:0.3px;}</style><linearGradient id="linear-gradient" x1="27.56" y1="27.31" x2="41.97" y2="27.31" gradientTransform="matrix(1, 0, 0, -1, 0, 52)" gradientUnits="userSpaceOnUse"><stop offset="1" stop-color="#fff"/><stop offset="1" stop-color="#010101"/></linearGradient><linearGradient id="linear-gradient-2" x1="8.75" y1="34.36" x2="16.05" y2="34.36" xlink:href="#linear-gradient"/><linearGradient id="linear-gradient-3" x1="25.24" y1="34.73" x2="30.09" y2="34.73" xlink:href="#linear-gradient"/><linearGradient id="linear-gradient-4" x1="18.15" y1="34.36" x2="23.58" y2="34.36" xlink:href="#linear-gradient"/><linearGradient id="linear-gradient-5" x1="32.74" y1="39.66" x2="35.39" y2="39.66" xlink:href="#linear-gradient"/><linearGradient id="linear-gradient-6" x1="14.38" y1="39.12" x2="20.94" y2="39.12" xlink:href="#linear-gradient"/><linearGradient id="linear-gradient-7" x1="24.39" y1="42.71" x2="30.06" y2="42.71" xlink:href="#linear-gradient"/><linearGradient id="linear-gradient-8" x1="3.48" y1="29.73" x2="7.12" y2="29.73" xlink:href="#linear-gradient"/><linearGradient id="linear-gradient-9" x1="33.62" y1="29.17" x2="36.72" y2="29.17" xlink:href="#linear-gradient"/><linearGradient id="linear-gradient-10" x1="39.7" y1="31.99" x2="44.02" y2="31.99" xlink:href="#linear-gradient"/><linearGradient id="linear-gradient-11" x1="22.34" y1="36.98" x2="24.69" y2="36.98" xlink:href="#linear-gradient"/><linearGradient id="linear-gradient-12" x1="10.61" y1="39.24" x2="13.77" y2="39.24" xlink:href="#linear-gradient"/><linearGradient id="linear-gradient-13" x1="27.75" y1="27.03" x2="31.46" y2="27.03" xlink:href="#linear-gradient"/><linearGradient id="linear-gradient-14" x1="32.13" y1="28.18" x2="33.37" y2="28.18" xlink:href="#linear-gradient"/><linearGradient id="linear-gradient-15" x1="32.63" y1="34.06" x2="33.85" y2="34.06" xlink:href="#linear-gradient"/><linearGradient id="linear-gradient-16" x1="20.24" y1="45.37" x2="23.37" y2="45.37" xlink:href="#linear-gradient"/><linearGradient id="linear-gradient-17" x1="32.45" y1="33.64" x2="33.64" y2="33.64" xlink:href="#linear-gradient"/><linearGradient id="linear-gradient-18" x1="8.49" y1="34.62" x2="10.29" y2="34.62" xlink:href="#linear-gradient"/><linearGradient id="linear-gradient-19" x1="2.26" y1="27.73" x2="4.37" y2="27.73" xlink:href="#linear-gradient"/><linearGradient id="linear-gradient-20" x1="34.23" y1="44.29" x2="35.51" y2="44.29" xlink:href="#linear-gradient"/><linearGradient id="linear-gradient-21" x1="38.87" y1="28.61" x2="40.26" y2="28.61" xlink:href="#linear-gradient"/><linearGradient id="linear-gradient-22" x1="32.33" y1="30.35" x2="33.18" y2="30.35" xlink:href="#linear-gradient"/><linearGradient id="linear-gradient-23" x1="6.39" y1="31.76" x2="7.98" y2="31.76" xlink:href="#linear-gradient"/><linearGradient id="linear-gradient-24" x1="32.57" y1="26.78" x2="34.43" y2="26.78" xlink:href="#linear-gradient"/><linearGradient id="linear-gradient-25" x1="22.44" y1="45.4" x2="23.61" y2="45.4" xlink:href="#linear-gradient"/><linearGradient id="linear-gradient-26" x1="32.43" y1="31.69" x2="33.42" y2="31.69" xlink:href="#linear-gradient"/><linearGradient id="linear-gradient-27" x1="32.33" y1="28.92" x2="32.98" y2="28.92" xlink:href="#linear-gradient"/><linearGradient id="linear-gradient-28" x1="6.98" y1="32.6" x2="8.55" y2="32.6" xlink:href="#linear-gradient"/><linearGradient id="linear-gradient-29" x1="1.49" y1="27.03" x2="2.89" y2="27.03" xlink:href="#linear-gradient"/><linearGradient id="linear-gradient-30" x1="7.91" y1="33.39" x2="9.18" y2="33.39" xlink:href="#linear-gradient"/><linearGradient id="linear-gradient-31" x1="9.74" y1="35.91" x2="10.83" y2="35.91" xlink:href="#linear-gradient"/><linearGradient id="linear-gradient-32" x1="32.32" y1="32.35" x2="32.57" y2="32.35" xlink:href="#linear-gradient"/><linearGradient id="linear-gradient-33" x1="22.9" y1="38.21" x2="23.37" y2="38.21" xlink:href="#linear-gradient"/><linearGradient id="linear-gradient-34" x1="24.17" y1="39.66" x2="25.06" y2="39.66" xlink:href="#linear-gradient"/><linearGradient id="linear-gradient-35" x1="32.75" y1="36.33" x2="33" y2="36.33" xlink:href="#linear-gradient"/><linearGradient id="linear-gradient-36" x1="14.77" y1="37.26" x2="15.2" y2="37.26" xlink:href="#linear-gradient"/><linearGradient id="linear-gradient-37" x1="34.63" y1="45.42" x2="35.45" y2="45.42" xlink:href="#linear-gradient"/><linearGradient id="linear-gradient-38" x1="34.85" y1="27.53" x2="35.32" y2="27.53" xlink:href="#linear-gradient"/><linearGradient id="linear-gradient-39" x1="32.96" y1="30.13" x2="33.17" y2="30.13" xlink:href="#linear-gradient"/><linearGradient id="linear-gradient-40" x1="33.8" y1="35.57" x2="34.03" y2="35.57" xlink:href="#linear-gradient"/><linearGradient id="linear-gradient-41" x1="33.18" y1="31.59" x2="33.39" y2="31.59" xlink:href="#linear-gradient"/><linearGradient id="linear-gradient-42" x1="22.49" y1="46.34" x2="23.18" y2="46.34" xlink:href="#linear-gradient"/><linearGradient id="linear-gradient-43" x1="22.3" y1="44.89" x2="22.55" y2="44.89" xlink:href="#linear-gradient"/><linearGradient id="linear-gradient-44" x1="24.53" y1="39.12" x2="24.81" y2="39.12" xlink:href="#linear-gradient"/><linearGradient id="linear-gradient-45" x1="23.96" y1="39.14" x2="24.19" y2="39.14" xlink:href="#linear-gradient"/><linearGradient id="linear-gradient-46" x1="24.41" y1="38.9" x2="24.62" y2="38.9" xlink:href="#linear-gradient"/><linearGradient id="linear-gradient-47" x1="23.74" y1="38.74" x2="23.97" y2="38.74" xlink:href="#linear-gradient"/><linearGradient id="linear-gradient-48" x1="8.93" y1="33.49" x2="9.17" y2="33.49" xlink:href="#linear-gradient"/><linearGradient id="linear-gradient-49" x1="24.82" y1="39.57" x2="25.02" y2="39.57" xlink:href="#linear-gradient"/><linearGradient id="linear-gradient-50" x1="24.22" y1="38.47" x2="24.44" y2="38.47" xlink:href="#linear-gradient"/><linearGradient id="linear-gradient-51" x1="3.12" y1="27.32" x2="3.48" y2="27.32" xlink:href="#linear-gradient"/><linearGradient id="linear-gradient-52" x1="34.38" y1="28.08" x2="34.64" y2="28.08" xlink:href="#linear-gradient"/><linearGradient id="linear-gradient-53" x1="34.43" y1="45.19" x2="34.64" y2="45.19" xlink:href="#linear-gradient"/><linearGradient id="linear-gradient-54" x1="22.12" y1="45.67" x2="22.5" y2="45.67" xlink:href="#linear-gradient"/><linearGradient id="linear-gradient-55" x1="8.3" y1="32.66" x2="8.55" y2="32.66" xlink:href="#linear-gradient"/><linearGradient id="linear-gradient-56" x1="21.47" y1="45.72" x2="21.69" y2="45.72" xlink:href="#linear-gradient"/><linearGradient id="linear-gradient-57" x1="8.12" y1="32.34" x2="8.3" y2="32.34" xlink:href="#linear-gradient"/><linearGradient id="linear-gradient-58" x1="20.45" y1="44.03" x2="20.64" y2="44.03" xlink:href="#linear-gradient"/><linearGradient id="linear-gradient-59" x1="7.51" y1="32.74" x2="7.7" y2="32.74" xlink:href="#linear-gradient"/><linearGradient id="linear-gradient-60" x1="10.42" y1="35.66" x2="10.61" y2="35.66" xlink:href="#linear-gradient"/><linearGradient id="linear-gradient-61" x1="20.65" y1="44.25" x2="20.84" y2="44.25" xlink:href="#linear-gradient"/><linearGradient id="linear-gradient-62" x1="19.81" y1="44.24" x2="20.02" y2="44.24" xlink:href="#linear-gradient"/><linearGradient id="linear-gradient-63" x1="21.69" y1="45.9" x2="21.9" y2="45.9" xlink:href="#linear-gradient"/><linearGradient id="linear-gradient-64" x1="32.97" y1="31.07" x2="33.22" y2="31.07" xlink:href="#linear-gradient"/><linearGradient id="linear-gradient-65" x1="10.64" y1="36.08" x2="10.83" y2="36.08" xlink:href="#linear-gradient"/><linearGradient id="linear-gradient-66" x1="20.03" y1="44.45" x2="20.23" y2="44.45" xlink:href="#linear-gradient"/><linearGradient id="linear-gradient-67" x1="10.24" y1="36.31" x2="10.41" y2="36.31" xlink:href="#linear-gradient"/><linearGradient id="linear-gradient-68" x1="24.21" y1="39.66" x2="24.39" y2="39.66" xlink:href="#linear-gradient"/><linearGradient id="linear-gradient-69" x1="21.69" y1="45.27" x2="21.9" y2="45.27" xlink:href="#linear-gradient"/><linearGradient id="linear-gradient-70" x1="34.64" y1="28.41" x2="34.82" y2="28.41" xlink:href="#linear-gradient"/><linearGradient id="linear-gradient-71" x1="10.42" y1="36.52" x2="10.61" y2="36.52" xlink:href="#linear-gradient"/><linearGradient id="linear-gradient-72" x1="7.71" y1="32.97" x2="7.9" y2="32.97" xlink:href="#linear-gradient"/><linearGradient id="linear-gradient-73" x1="35.3" y1="27.92" x2="35.51" y2="27.92" xlink:href="#linear-gradient"/><linearGradient id="linear-gradient-74" x1="22.06" y1="46.13" x2="22.32" y2="46.13" xlink:href="#linear-gradient"/><linearGradient id="linear-gradient-75" x1="34.2" y1="27.77" x2="34.39" y2="27.77" xlink:href="#linear-gradient"/><linearGradient id="linear-gradient-76" x1="24.01" y1="37.94" x2="24.19" y2="37.94" xlink:href="#linear-gradient"/><linearGradient id="linear-gradient-77" x1="2.42" y1="27.58" x2="2.65" y2="27.58" xlink:href="#linear-gradient"/><linearGradient id="linear-gradient-78" x1="34.02" y1="27.55" x2="34.21" y2="27.55" xlink:href="#linear-gradient"/><linearGradient id="linear-gradient-79" x1="21.91" y1="45.5" x2="22.12" y2="45.5" xlink:href="#linear-gradient"/><linearGradient id="linear-gradient-80" x1="8.75" y1="33.17" x2="8.92" y2="33.17" xlink:href="#linear-gradient"/><linearGradient id="linear-gradient-81" x1="2.89" y1="27.1" x2="3.13" y2="27.1" xlink:href="#linear-gradient"/><linearGradient id="linear-gradient-82" x1="34.64" y1="27.13" x2="34.83" y2="27.13" xlink:href="#linear-gradient"/><linearGradient id="linear-gradient-83" x1="34.44" y1="26.92" x2="34.63" y2="26.92" xlink:href="#linear-gradient"/><linearGradient id="linear-gradient-84" x1="21.22" y1="45.53" x2="21.47" y2="45.53" xlink:href="#linear-gradient"/><linearGradient id="linear-gradient-85" x1="23.58" y1="38.42" x2="23.76" y2="38.42" xlink:href="#linear-gradient"/><linearGradient id="linear-gradient-86" x1="10.01" y1="35.03" x2="10.2" y2="35.03" xlink:href="#linear-gradient"/><linearGradient id="linear-gradient-87" x1="8.27" y1="33.63" x2="8.5" y2="33.63" xlink:href="#linear-gradient"/><linearGradient id="linear-gradient-88" x1="7.73" y1="31.88" x2="7.92" y2="31.88" xlink:href="#linear-gradient"/><linearGradient id="linear-gradient-89" x1="33.77" y1="21.7" x2="34.27" y2="21.7" xlink:href="#linear-gradient"/><linearGradient id="linear-gradient-90" x1="34.01" y1="22.03" x2="34.44" y2="22.03" xlink:href="#linear-gradient"/></defs><g id="Layer_2" data-name="Layer 2"><text class="cls-1" transform="translate(14.72 51.41)">FLIX</text><path class="cls-2" d="M38.48,25.64a3.44,3.44,0,0,1,.4-1.51c0-.17.06-.35.09-.52.85-3.41,1.81-6.79,2.48-10.24A18.82,18.82,0,0,0,42,9.87c0-.64-.21-.87-.76-.92a.8.8,0,0,0-1,.67c-1.32,3.91-2.72,7.8-3.89,11.77-.31,1.4-.58,2.81-1,4.2-.19.8-.42,1.61-.55,2.43A2.55,2.55,0,0,1,34,29.46c-.94.94-1.88,1.88-2.76,2.83a14.76,14.76,0,0,0-3.07,4.2,6.22,6.22,0,0,0-.57,2.21,1.49,1.49,0,0,0,1.88,1.72,2.84,2.84,0,0,0,1.41-.61,15.15,15.15,0,0,0,1.94-1.9A21.74,21.74,0,0,0,37,30.38c.56-1.54,1-3.15,1.52-4.74Zm-4.61,5.85a.6.6,0,0,1-.23.44,18.1,18.1,0,0,1-3,6.25,6.47,6.47,0,0,1-1.13,1.21c-.13.09-.25.27-.44.15a.51.51,0,0,1-.21-.46,3.77,3.77,0,0,1,.33-1.51,9.73,9.73,0,0,1,1.13-2.11,36.15,36.15,0,0,1,3.07-3.82h0l.23-.4h0c0-.15.19-.34.32-.27s.1.37-.06.52Z" transform="translate(8.86 5.2)"/><path class="cls-3" d="M13.76,9.73l.87-3.32a6.92,6.92,0,0,1,.34-1c.1-.29.35-.31.62-.29a.47.47,0,0,1,.46.46h0A7.38,7.38,0,0,1,16,7.37a53.3,53.3,0,0,1-.94,6.29,3.31,3.31,0,0,0-.06.61c-.19.33.1.68,0,1a22.43,22.43,0,0,1-.57,3.24c-1.19,3.3-1.88,6.75-3.11,10-.11.28-.21.59-.31.88a1.05,1.05,0,0,1-1.05.71c-.88,0-1.38-.21-1.07-1.21.46-1.53.8-3.09,1.28-4.6a96.6,96.6,0,0,0,2.8-11.08c.12-.61.29-1.21.42-1.82A3.75,3.75,0,0,1,13.76,9.73Z" transform="translate(8.86 5.2)"/><path class="cls-4" d="M28.37,27.27c-.13.1-.27.21-.42.31a1.53,1.53,0,0,1-2.51-1.07,7.19,7.19,0,0,1-.15-2.4,54.62,54.62,0,0,1,2.2-11.75c.44-1.33.81-2.67,1.21-4,.08-.23.09-.48.15-.71s-.15-.86.42-1,.64.23.79.58a18,18,0,0,1-.5,5.16c-.67,3.58-1.4,7.15-2.11,10.71a14.24,14.24,0,0,0-.36,3.51c0,.56.29.56.67.27C28.14,26.74,28.53,26.58,28.37,27.27Z" transform="translate(8.86 5.2)"/><path class="cls-5" d="M23.56,7.22a30.07,30.07,0,0,1-.31,4.45c0,.44-.09.88-.13,1.34a3.06,3.06,0,0,0,0,1.17,10.07,10.07,0,0,1-.75,3.32c-.94,2.95-1.78,5.9-2.55,8.89a9,9,0,0,1-.67,1.86.54.54,0,0,1-.67.36c-.32-.07-.29-.34-.31-.57a16.84,16.84,0,0,1,.5-4.12c.92-5,2.19-9.89,3.32-14.82.13-.54.23-1.08.34-1.63.14-.15.06-.4.23-.56C23.08,6.41,23.37,6.68,23.56,7.22Z" transform="translate(8.86 5.2)"/><path class="cls-6" d="M33,14.93c.14-1.82.66-3.57.94-5.37.1-.5.23-1,.35-1.5s.25-.88.8-.73.25.64.31,1a.88.88,0,0,1-.08.6,20.81,20.81,0,0,1-.51,3.24c-.23,1.28-.5,2.55-.75,3.83-.21.27,0,.6-.17.86v0c-.52.75-.71.75-1.12,0,0-.14,0-.27,0-.41C33,15.94,32.72,15.41,33,14.93Z" transform="translate(8.86 5.2)"/><path class="cls-7" d="M14.4,18.53a10.37,10.37,0,0,1,.38-3.37c.23,0,.21-.37.42-.43A31.23,31.23,0,0,1,19.15,8.5a2.68,2.68,0,0,1,.65-.65A1.9,1.9,0,0,1,20,7.66h0a1,1,0,0,1,.22-.19h0c.19-.12.36-.37.61-.17s.08.23,0,.34h0a2,2,0,0,1-.19.21h0a.71.71,0,0,0-.19.23,40.93,40.93,0,0,0-5,7.9A15.9,15.9,0,0,1,14.4,18.53Z" transform="translate(8.86 5.2)"/><path class="cls-8" d="M30,7.22c-.73-.61-.73-.61-1.21.44l-.11-.59c-1.54,1.49-2.44,3.35-3.64,5-.23,0-.39.37-.68.17a35,35,0,0,1,3.78-5.46,1.31,1.31,0,0,1,1.34-.4A.67.67,0,0,1,30,7.22Z" transform="translate(8.86 5.2)"/><path class="cls-9" d="M3.49,23.46a37.91,37.91,0,0,1,2.91-2.9c.42-.11.87-.29.69.46a10.16,10.16,0,0,1-2.72,2.71C4,23.82,3.45,24.61,3.49,23.46Z" transform="translate(8.86 5.2)"/><path class="cls-10" d="M36.73,20.16c-.31,1.4-.57,2.82-1,4.2-.05-.14,0-.33-.19-.4a.34.34,0,0,0-.21.24h0c-.25.11-.29.4-.48.57l0,0a1.2,1.2,0,0,1-.19.21h0l-.19.21h0c-.25.12-.54.5-.77.19s.25-.53.35-.82h0a1.11,1.11,0,0,0,.19-.23h0a.33.33,0,0,0,.19-.25l0,0c.19-.06.14-.29.25-.38h0a.38.38,0,0,0,.17-.27Z" transform="translate(8.86 5.2)"/><path class="cls-11" d="M39.7,22.52,42.41,19c.28-.38.55-.79.84-1.19.15-.21.25-.5.78-.48-1.2,1.9-2.56,3.55-3.75,5.33C40.1,22.52,39.86,22.67,39.7,22.52Z" transform="translate(8.86 5.2)"/><path class="cls-12" d="M22.35,17.48l.56-3.4c.32.44.29-.21.48-.15l.21-.23a.63.63,0,0,0,.17-.23l0,0c.17-.1.14-.29.23-.42h0c.16-.1.14-.29.23-.42h0a.45.45,0,0,1,.39-.06.31.31,0,0,1,.11.23,2.65,2.65,0,0,0-.27.5v0c-.17.11-.13.3-.21.46a.2.2,0,0,1,0,.15,1,1,0,0,0-.17.27A30.9,30.9,0,0,1,22.35,17.48Z" transform="translate(8.86 5.2)"/><path class="cls-13" d="M13.76,9.73a3,3,0,0,1-.42,1.69c-.34-.19-.32.17-.38.29-.54,1-1,2.09-1.57,3.12a2.78,2.78,0,0,1-.58,1,.53.53,0,0,1-.23-.44A17.37,17.37,0,0,1,12,12.76C12.67,11.78,13,10.67,13.76,9.73Z" transform="translate(8.86 5.2)"/><path class="cls-14" d="M28.37,27.27c0-.5-.38-.3-.61-.38a9.55,9.55,0,0,0,2.55-3c.29-.4.42-.94,1.15-1.19a48,48,0,0,1-3,4.56S28.41,27.27,28.37,27.27Z" transform="translate(8.86 5.2)"/><path class="cls-15" d="M33,23.11c0,.4,0,.81,0,1.21s0,.67.41.84c0,.62-.48.39-.79.43A5.84,5.84,0,0,1,32.34,22a.52.52,0,0,1,.23.36C32.76,22.59,32.24,23.17,33,23.11Z" transform="translate(8.86 5.2)"/><path class="cls-16" d="M32.74,16.82c.52.48.52.48,1.12,0a4,4,0,0,1-.23,1.46c-.23.23-.06.86-.66.71s-.28-.56-.28-.88a3.5,3.5,0,0,1,.05-1.33Z" transform="translate(8.86 5.2)"/><path class="cls-17" d="M20.84,7.62c-.06-.53-.4-.09-.61-.19.19-.44.61-.63,1-.88a.37.37,0,0,0,.25-.19h0a2.11,2.11,0,0,0,.23-.19h0A1.18,1.18,0,0,1,21.89,6a.22.22,0,0,1,.16,0,.4.4,0,0,0,.25-.18.47.47,0,0,1,.17,0,.76.76,0,0,1,.69,0,.24.24,0,0,1,.19.23c-.23.25-.44.5-.84.43l0,0c-.12-.19-.25-.17-.39,0h0a.36.36,0,0,0-.21.21h0a1,1,0,0,0-.21.21A2.1,2.1,0,0,1,20.84,7.62Z" transform="translate(8.86 5.2)"/><path class="cls-18" d="M32.72,16.81c0,.51,0,1,0,1.53,0,.21,0,.44.23.52s.33-.16.42-.35a.63.63,0,0,1,.22-.21,2.45,2.45,0,0,1-.2,1.27c-.26.3-.53.51-.92.17a3.39,3.39,0,0,1,0-1.27A5.17,5.17,0,0,1,32.72,16.81Z" transform="translate(8.86 5.2)"/><path class="cls-19" d="M10,17.09a2.94,2.94,0,0,1-.85,1.23c-.21-.13-.48.17-.67-.06a8.43,8.43,0,0,1,1.25-1.65c.13-.09.25-.27.42-.19a.23.23,0,0,1,0,.4h0A.74.74,0,0,0,10,17.09Z" transform="translate(8.86 5.2)"/><path class="cls-20" d="M3.49,23.46c.1.73.59.19.88.27a2.8,2.8,0,0,1-.88.8c-.08.15-.31.1-.35.27h0a.36.36,0,0,0-.23.17h0c-.17.1-.38.17-.53,0s0-.34.07-.5h0a.25.25,0,0,0,.23-.23A3.24,3.24,0,0,1,3.49,23.46Z" transform="translate(8.86 5.2)"/><path class="cls-21" d="M35.29,8.93c0-.27,0-.56,0-.83s.08-.52-.23-.61-.44.11-.55.34a2.29,2.29,0,0,1-.21.23,2,2,0,0,1,.21-1c.09-.14.08-.31.17-.44h0c.35-.14.63-.16.83.23A4.72,4.72,0,0,1,35.29,8.93Z" transform="translate(8.86 5.2)"/><path class="cls-22" d="M39.7,22.52c.19,0,.52-.4.56.15a8.63,8.63,0,0,1-1.4,1.73,3.58,3.58,0,0,1,.4-1.52Z" transform="translate(8.86 5.2)"/><path class="cls-23" d="M32.38,22.46a3,3,0,0,1,0-.42c0-.4,0-.83,0-1.23a.22.22,0,0,1,.19-.09,2,2,0,0,1,.44.13.63.63,0,0,1,.17.15l0,.43c-.18.24,0,.59-.18.84h0C32.82,22.44,32.69,22.75,32.38,22.46Z" transform="translate(8.86 5.2)"/><path class="cls-24" d="M7.07,21c0-.44-.38-.42-.69-.46A1.41,1.41,0,0,1,7,19.93c.31-.1.4-.59.82-.44.25.09.23.29.14.48h0a.28.28,0,0,0-.19.27A1.59,1.59,0,0,1,7.07,21Z" transform="translate(8.86 5.2)"/><path class="cls-25" d="M32.57,25.59c.17-.33.65-.06.79-.43.21-.19.36-.48.65-.59,0,.29-.21.48-.31.71.29.13.48-.15.71-.08C33.68,26,33.41,26,32.57,25.59Z" transform="translate(8.86 5.2)"/><path class="cls-26" d="M22.53,6.4c.23-.25.44-.5.84-.43a1.62,1.62,0,0,1,.19,1.27c-.27-.4-.59-.56-1-.19a.19.19,0,0,1-.11-.21s0,0,0-.06S22.51,6.51,22.53,6.4Z" transform="translate(8.86 5.2)"/><path class="cls-27" d="M33,21a.4.4,0,0,1-.42-.21,1.14,1.14,0,0,1,0-1,1.59,1.59,0,0,0,.84-.18l0,.41c-.22.25,0,.59-.2.84h0A1.77,1.77,0,0,0,33,21Z" transform="translate(8.86 5.2)"/><path class="cls-28" d="M32.38,22.46c.23,0,.4-.11.61-.17l0,.84c-.26.15-.09.54-.38.75C32.19,23.42,32.4,22.92,32.38,22.46Z" transform="translate(8.86 5.2)"/><path class="cls-29" d="M7.92,20c-.06-.31-.17-.5-.52-.25-.13.07-.29.13-.42.19a1.32,1.32,0,0,1,.54-.58.85.85,0,0,1,.19-.19l0,0A.85.85,0,0,1,7.92,19h0c.29-.15.57-.27.65.23h0c-.15.08-.12.29-.25.39h0l-.17.23A.29.29,0,0,1,7.92,20Z" transform="translate(8.86 5.2)"/><path class="cls-30" d="M2.42,24.51c-.16.46.13.48.46.48a1.22,1.22,0,0,1-1.4.37A2.27,2.27,0,0,1,2.42,24.51Z" transform="translate(8.86 5.2)"/><path class="cls-31" d="M8.55,19.16c-.15-.25-.4-.23-.65-.23a.78.78,0,0,1,.36-.44.31.31,0,0,0,.23-.21h0a2.63,2.63,0,0,0,.35-.15c.29-.19.29,0,.34.21h0c-.15.08-.09.29-.23.38v0a1.56,1.56,0,0,0-.17.25Z" transform="translate(8.86 5.2)"/><path class="cls-32" d="M10.2,16.82c0-.4-.25-.26-.46-.23.06-.34.32-.55.5-.82a.51.51,0,0,1,.17-.19h0a1.37,1.37,0,0,0,.19-.23h0a.52.52,0,0,1,.23.44h0a.49.49,0,0,0-.19.27.2.2,0,0,1,0,.15.6.6,0,0,0-.19.25A.42.42,0,0,1,10.2,16.82Z" transform="translate(8.86 5.2)"/><path class="cls-33" d="M32.57,19.74l0,1.05-.19,0a6,6,0,0,1,.15-2.32Z" transform="translate(8.86 5.2)"/><path class="cls-34" d="M23.37,13.93a1.09,1.09,0,0,1-.29.63c-.21-.09-.08-.34-.17-.48.06-.36,0-.74.21-1.07C23.23,13.3,23,13.7,23.37,13.93Z" transform="translate(8.86 5.2)"/><path class="cls-35" d="M24.62,12.66h-.45a.36.36,0,0,1,0-.2,1.3,1.3,0,0,0,.18-.23h0c.24,0,.36-.48.67-.17a.47.47,0,0,1,0,.17c-.1.12-.06.31-.19.43h0C24.77,12.76,24.69,12.76,24.62,12.66Z" transform="translate(8.86 5.2)"/><path class="cls-36" d="M33,14.93c0,.49.18,1-.19,1.49A3,3,0,0,1,33,14.93Z" transform="translate(8.86 5.2)"/><path class="cls-37" d="M15.2,14.73c-.09.2,0,.58-.42.43a1.6,1.6,0,0,1,.21-.87C15.05,14.45,15,14.64,15.2,14.73Z" transform="translate(8.86 5.2)"/><path class="cls-38" d="M35.45,6.82a1.53,1.53,0,0,0-.83-.23C35.12,6.2,35.27,6.24,35.45,6.82Z" transform="translate(8.86 5.2)"/><path class="cls-39" d="M34.85,24.76c0-.31.16-.54.48-.57A.88.88,0,0,1,34.85,24.76Z" transform="translate(8.86 5.2)"/><path class="cls-40" d="M33,22.29c0-.29-.09-.62.18-.85A1,1,0,0,1,33,22.29Z" transform="translate(8.86 5.2)"/><path class="cls-41" d="M33.84,16.86c-.06-.3-.12-.63.17-.86A1,1,0,0,1,33.84,16.86Z" transform="translate(8.86 5.2)"/><path class="cls-42" d="M33.2,20.83c0-.29-.11-.61.2-.84A1.22,1.22,0,0,1,33.2,20.83Z" transform="translate(8.86 5.2)"/><path class="cls-43" d="M23.18,5.74h-.69a.44.44,0,0,1,.63,0Z" transform="translate(8.86 5.2)"/><path class="cls-44" d="M22.47,6.78a2.33,2.33,0,0,1,.07.25l-.23.42A.78.78,0,0,1,22.47,6.78Z" transform="translate(8.86 5.2)"/><path class="cls-45" d="M24.62,12.66h.19a.44.44,0,0,1-.21.43c-.06,0-.08-.08-.06-.14s0-.07,0-.07Z" transform="translate(8.86 5.2)"/><path class="cls-46" d="M24.19,12.65a.35.35,0,0,1-.23.42A.42.42,0,0,1,24.19,12.65Z" transform="translate(8.86 5.2)"/><path class="cls-47" d="M24.6,12.88c0,.07,0,.13,0,.21l-.2.23A.4.4,0,0,1,24.6,12.88Z" transform="translate(8.86 5.2)"/><path class="cls-48" d="M24,13.05a.35.35,0,0,1-.23.42A.51.51,0,0,1,24,13.05Z" transform="translate(8.86 5.2)"/><path class="cls-49" d="M8.93,18.7a.36.36,0,0,1,.23-.38A.4.4,0,0,1,8.93,18.7Z" transform="translate(8.86 5.2)"/><path class="cls-50" d="M24.83,12.65a.45.45,0,0,1,.19-.43A.45.45,0,0,1,24.83,12.65Z" transform="translate(8.86 5.2)"/><path class="cls-51" d="M24.23,13.76c0-.19,0-.39.21-.46A.57.57,0,0,1,24.23,13.76Z" transform="translate(8.86 5.2)"/><path class="cls-52" d="M3.13,24.82a.34.34,0,0,1,.34-.27A.43.43,0,0,1,3.13,24.82Z" transform="translate(8.86 5.2)"/><path class="cls-53" d="M34.64,23.73c0,.19,0,.34-.25.38A.42.42,0,0,1,34.64,23.73Z" transform="translate(8.86 5.2)"/><path class="cls-54" d="M34.62,6.59a.38.38,0,0,1-.17.44A.36.36,0,0,1,34.62,6.59Z" transform="translate(8.86 5.2)"/><path class="cls-55" d="M22.12,6.41c.14-.23.27-.28.39,0Z" transform="translate(8.86 5.2)"/><path class="cls-56" d="M8.3,19.53a.36.36,0,0,1,.25-.39A.41.41,0,0,1,8.3,19.53Z" transform="translate(8.86 5.2)"/><path class="cls-57" d="M21.7,6.18l-.23.2Z" transform="translate(8.86 5.2)"/><path class="cls-58" d="M8.13,19.78a.24.24,0,0,1,.17-.23A.3.3,0,0,1,8.13,19.78Z" transform="translate(8.86 5.2)"/><path class="cls-59" d="M20.46,8.08a.28.28,0,0,1,.19-.23A.3.3,0,0,1,20.46,8.08Z" transform="translate(8.86 5.2)"/><path class="cls-60" d="M7.71,19.16l-.19.19A.18.18,0,0,1,7.71,19.16Z" transform="translate(8.86 5.2)"/><path class="cls-61" d="M10.43,16.46l.19-.25Z" transform="translate(8.86 5.2)"/><path class="cls-62" d="M20.65,7.85a.27.27,0,0,1,.19-.21A.22.22,0,0,1,20.65,7.85Z" transform="translate(8.86 5.2)"/><path class="cls-63" d="M20,7.66a.25.25,0,0,1-.21.19A.23.23,0,0,1,20,7.66Z" transform="translate(8.86 5.2)"/><path class="cls-64" d="M21.91,6l-.21.17A.22.22,0,0,1,21.91,6Z" transform="translate(8.86 5.2)"/><path class="cls-65" d="M33,21l.23-.19a.21.21,0,0,1,0,.19Z" transform="translate(8.86 5.2)"/><path class="cls-66" d="M10.64,16.06a.31.31,0,0,1,.19-.27Z" transform="translate(8.86 5.2)"/><path class="cls-67" d="M20.23,7.45,20,7.64A.26.26,0,0,1,20.23,7.45Z" transform="translate(8.86 5.2)"/><path class="cls-68" d="M10.41,15.6l-.17.19Z" transform="translate(8.86 5.2)"/><path class="cls-69" d="M24.39,12.22l-.18.23A.26.26,0,0,1,24.39,12.22Z" transform="translate(8.86 5.2)"/><path class="cls-70" d="M21.7,6.84a.23.23,0,0,1,.21-.21Z" transform="translate(8.86 5.2)"/><path class="cls-71" d="M34.81,23.46a.3.3,0,0,1-.17.27A.31.31,0,0,1,34.81,23.46Z" transform="translate(8.86 5.2)"/><path class="cls-72" d="M10.6,15.37l-.19.23Z" transform="translate(8.86 5.2)"/><path class="cls-73" d="M7.9,18.93l-.19.19A.25.25,0,0,1,7.9,18.93Z" transform="translate(8.86 5.2)"/><path class="cls-74" d="M35.31,24.2a.24.24,0,0,1,.21-.24A.29.29,0,0,1,35.31,24.2Z" transform="translate(8.86 5.2)"/><path class="cls-75" d="M22.31,5.78a.27.27,0,0,1-.24.17A.24.24,0,0,1,22.31,5.78Z" transform="translate(8.86 5.2)"/><path class="cls-76" d="M34.39,24.11a.26.26,0,0,1-.19.25A.23.23,0,0,1,34.39,24.11Z" transform="translate(8.86 5.2)"/><path class="cls-77" d="M24,14.2a.33.33,0,0,1,.17-.27Z" transform="translate(8.86 5.2)"/><path class="cls-78" d="M2.65,24.3a.23.23,0,0,1-.23.23A.28.28,0,0,1,2.65,24.3Z" transform="translate(8.86 5.2)"/><path class="cls-79" d="M34.22,24.34a.32.32,0,0,1-.19.23A.2.2,0,0,1,34.22,24.34Z" transform="translate(8.86 5.2)"/><path class="cls-80" d="M21.91,6.61a.25.25,0,0,1,.21-.21Z" transform="translate(8.86 5.2)"/><path class="cls-81" d="M8.74,19l.17-.25Z" transform="translate(8.86 5.2)"/><path class="cls-82" d="M2.9,25a.22.22,0,0,1,.23-.17A.24.24,0,0,1,2.9,25Z" transform="translate(8.86 5.2)"/><path class="cls-83" d="M34.64,25a.29.29,0,0,1,.19-.21A.19.19,0,0,1,34.64,25Z" transform="translate(8.86 5.2)"/><path class="cls-84" d="M34.43,25.18a.33.33,0,0,1,.19-.21A.19.19,0,0,1,34.43,25.18Z" transform="translate(8.86 5.2)"/><path class="cls-85" d="M21.47,6.38a.27.27,0,0,1-.25.19Z" transform="translate(8.86 5.2)"/><path class="cls-86" d="M23.75,13.47a.26.26,0,0,1-.17.23A.25.25,0,0,1,23.75,13.47Z" transform="translate(8.86 5.2)"/><path class="cls-87" d="M10,17.09a.29.29,0,0,1,.19-.25Z" transform="translate(8.86 5.2)"/><path class="cls-88" d="M8.49,18.26a.24.24,0,0,1-.23.21Z" transform="translate(8.86 5.2)"/><path class="cls-89" d="M7.73,20.26A.28.28,0,0,1,7.92,20,.33.33,0,0,1,7.73,20.26Z" transform="translate(8.86 5.2)"/><path class="cls-90" d="M34.05,30.65l-.27-.27L34,30c.19-.06.29,0,.25.23A.73.73,0,0,1,34.05,30.65Z" transform="translate(8.86 5.2)"/><path class="cls-91" d="M34.26,30.22A.41.41,0,0,0,34,30c.06-.15.19-.34.32-.26S34.41,30.07,34.26,30.22Z" transform="translate(8.86 5.2)"/><line class="cls-92" x1="10.35" x2="10.35" y2="6.9"/><line class="cls-92" y1="10.35" x2="6.9" y2="10.35"/><line class="cls-92" y1="58.81" x2="6.9" y2="58.81"/><line class="cls-92" x1="10.35" y1="69.17" x2="10.35" y2="62.27"/><line class="cls-92" x1="52.87" x2="52.87" y2="6.9"/><line class="cls-92" x1="63.22" y1="10.35" x2="56.32" y2="10.35"/><line class="cls-92" x1="63.22" y1="58.81" x2="56.32" y2="58.81"/><line class="cls-92" x1="52.87" y1="69.17" x2="52.87" y2="62.27"/></g></svg>